<svg version="1.2" baseProfile="tiny-ps" xmlns="http://www.w3.org/2000/svg" viewBox="0 0 801 542" width="801" height="542">
	<title>undraw_Checklist__re_2w7v-svg</title>
	<style>
		tspan { white-space:pre }
		.shp0 { fill: #f2f2f2 } 
		.shp1 { fill: #ffffff } 
		.shp2 { fill: #2f2e41 } 
		.shp3 { fill: #ffb8b8 } 
		.shp4 { fill: #cccccc } 
		.shp5 { fill: #3f3d56 } 
		.shp6 { fill: #8ea8c3 } 
	</style>
	<path id="Layer" class="shp0" d="M731.89 189.45C731.05 190.14 730.21 190.8 729.35 191.45L517.21 191.45C515.63 190.8 514.06 190.13 512.49 189.45C506.9 187.01 501.4 184.38 496.01 181.54C490.61 178.71 485.32 175.68 480.14 172.45C474.97 169.23 469.91 165.82 464.99 162.23C460.06 158.64 455.27 154.87 450.62 150.93C438.25 140.45 426.87 129.63 418.62 119.49C407.11 105.34 396.51 89.92 391.58 72.35C386.66 54.78 388.13 34.64 399.12 20.07C399.97 18.95 400.87 17.87 401.81 16.83C402.76 15.79 403.75 14.8 404.79 13.85C405.82 12.91 406.9 12 408.01 11.15C409.13 10.3 410.28 9.5 411.47 8.76C412.26 8.26 413.06 7.78 413.88 7.33C427.06 -0.07 443.69 -1.87 458.53 1.96C479.78 7.45 497.44 22.78 510.04 40.76C522.64 58.73 530.82 79.37 538.88 99.78C547.06 63.35 571.83 30.72 605.29 14.13C638.74 -2.46 680.3 -2.26 713.04 15.71C715.61 17.12 718.12 18.65 720.57 20.27C723.02 21.89 725.4 23.62 727.7 25.43C730.01 27.25 732.24 29.16 734.39 31.16C736.54 33.15 738.61 35.24 740.59 37.41C741.38 38.26 742.15 39.13 742.91 40.01C758.88 58.5 768.87 82.18 769.69 106.6C770.74 138.06 756.16 169.66 731.89 189.45Z" />
	<path id="Layer" class="shp1" d="M525.69 191.45L522.69 191.45C522.65 190.78 522.6 190.12 522.54 189.45C522.28 186.18 521.95 182.92 521.54 179.66C521.14 176.41 520.66 173.16 520.11 169.93C519.56 166.7 518.95 163.48 518.26 160.27C517.57 157.07 516.81 153.88 515.98 150.71C514.08 143.48 511.85 136.35 509.28 129.33C506.72 122.31 503.83 115.42 500.61 108.67C497.4 101.93 493.87 95.34 490.04 88.92C486.21 82.51 482.09 76.27 477.67 70.25C473.27 64.2 468.58 58.37 463.61 52.79C458.63 47.2 453.39 41.86 447.9 36.79C442.4 31.72 436.66 26.92 430.7 22.41C424.73 17.9 418.55 13.69 412.17 9.79C412.08 9.73 411.99 9.67 411.91 9.59C411.83 9.52 411.76 9.44 411.7 9.35C411.64 9.26 411.59 9.17 411.55 9.07C411.51 8.97 411.49 8.86 411.47 8.76C411.42 8.48 411.45 8.19 411.56 7.93C411.67 7.66 411.85 7.44 412.08 7.28C412.31 7.11 412.59 7.02 412.87 7C413.15 6.99 413.44 7.06 413.68 7.2C413.7 7.21 413.72 7.22 413.73 7.23C413.75 7.24 413.77 7.25 413.78 7.26C413.8 7.27 413.82 7.28 413.83 7.29C413.85 7.3 413.87 7.31 413.88 7.33C417.5 9.53 421.06 11.84 424.55 14.25C428.04 16.65 431.47 19.16 434.82 21.76C438.17 24.36 441.44 27.05 444.64 29.83C447.84 32.61 450.96 35.49 454 38.45C459.43 43.74 464.6 49.28 469.5 55.06C474.4 60.84 479.03 66.85 483.36 73.06C487.7 79.28 491.74 85.7 495.47 92.29C499.2 98.89 502.62 105.66 505.71 112.58C508.44 118.64 510.91 124.81 513.11 131.09C515.32 137.36 517.25 143.72 518.91 150.16C520.57 156.6 521.96 163.11 523.06 169.66C524.17 176.22 524.99 182.82 525.53 189.45C525.59 190.12 525.64 190.79 525.69 191.45Z" />
	<path id="Layer" class="shp1" d="M742.91 40.01C742.91 40.01 742.9 40.01 742.9 40.01C742.89 40.02 742.88 40.02 742.88 40.02C742.87 40.02 742.87 40.02 742.86 40.02C742.85 40.02 742.85 40.02 742.84 40.03C740.65 40.43 738.45 40.85 736.27 41.3C731.8 42.21 727.35 43.23 722.93 44.36C718.5 45.48 714.11 46.71 709.74 48.03C705.37 49.36 701.04 50.79 696.74 52.31C692.43 53.84 688.17 55.46 683.94 57.19C679.73 58.91 675.55 60.72 671.41 62.62C667.28 64.53 663.19 66.53 659.14 68.61C655.09 70.7 651.09 72.87 647.14 75.14C643.19 77.4 639.29 79.75 635.44 82.19C631.59 84.62 627.79 87.14 624.05 89.74C620.31 92.34 616.62 95.02 613 97.78C609.37 100.54 605.81 103.38 602.3 106.29C598.8 109.21 595.36 112.2 591.99 115.27C588.62 118.33 585.32 121.46 582.09 124.67C578.85 127.88 575.69 131.16 572.61 134.5C569.52 137.85 566.51 141.27 563.57 144.75C560.64 148.23 557.78 151.78 555 155.39C552.93 158.09 550.9 160.83 548.91 163.6C546.93 166.38 545 169.19 543.11 172.03C541.23 174.87 539.39 177.74 537.6 180.64C535.81 183.55 534.08 186.48 532.39 189.45C532.01 190.11 531.64 190.78 531.27 191.45L527.84 191.45C528.2 190.78 528.57 190.11 528.95 189.45C530.99 185.81 533.11 182.23 535.3 178.68C537.48 175.14 539.75 171.65 542.08 168.2C544.42 164.75 546.82 161.35 549.3 158C551.77 154.65 554.32 151.36 556.93 148.12C559.82 144.53 562.79 141 565.84 137.55C568.88 134.09 572.01 130.71 575.2 127.39C578.4 124.07 581.67 120.83 585.01 117.65C588.35 114.48 591.76 111.39 595.24 108.37C598.7 105.36 602.22 102.43 605.8 99.58C609.39 96.73 613.03 93.96 616.73 91.27C620.44 88.57 624.2 85.96 628.01 83.43C631.83 80.9 635.7 78.45 639.62 76.09C643.56 73.71 647.55 71.43 651.59 69.23C655.63 67.03 659.72 64.93 663.85 62.91C667.98 60.89 672.16 58.97 676.37 57.14C680.59 55.31 684.85 53.57 689.14 51.93C693.31 50.33 697.51 48.83 701.75 47.43C705.98 46.03 710.25 44.72 714.54 43.51C718.83 42.29 723.15 41.18 727.5 40.16C731.84 39.14 736.21 38.23 740.59 37.41C741.08 37.32 741.56 37.23 742.05 37.14C743.92 36.8 744.72 39.62 742.91 40.01Z" />
	<path id="Layer" class="shp2" d="M197.68 197.39C203.01 187.32 203.89 174.2 197.26 164.94C193.31 159.42 187.15 155.8 180.68 153.76C174.21 151.71 167.38 151.11 160.62 150.62C153.92 150.13 147.11 149.73 140.56 151.25C134.02 152.76 127.68 156.46 124.5 162.37C119.11 172.36 124.02 185.16 120.06 195.8C116.43 205.55 106.11 211.26 95.95 213.56C85.8 215.86 75.2 215.62 65.04 217.9C54.89 220.18 44.54 225.83 40.85 235.56C38.18 242.6 39.5 250.71 43.02 257.36C46.54 264.02 52.05 269.41 57.9 274.15C66.63 281.21 76.84 287.27 88.06 287.88C99.87 288.53 111.43 282.9 119.93 274.67C128.44 266.44 134.23 255.81 138.85 244.92C141.79 238.01 144.56 230.57 150.44 225.9C154.76 222.48 160.26 220.97 165.59 219.55L171.62 217.94C174.35 217.23 177 216.24 179.53 214.99C182.05 213.74 184.45 212.23 186.67 210.5C188.89 208.76 190.92 206.8 192.75 204.65C194.57 202.5 196.17 200.17 197.52 197.69C197.57 197.59 197.63 197.49 197.68 197.39Z" />
	<path id="Layer" class="shp3" d="M150.08 528.66L137.82 528.66L131.99 481.38L150.08 481.38L150.08 528.66L150.08 528.66Z" />
	<path id="Layer" class="shp2" d="M129.06 525.16L152.71 525.16L152.71 540.05L114.18 540.05L114.18 540.05C114.18 538.09 114.56 536.16 115.31 534.35C116.06 532.55 117.15 530.9 118.54 529.52C119.92 528.14 121.56 527.04 123.37 526.29C125.17 525.55 127.11 525.16 129.06 525.16L129.06 525.16Z" />
	<path id="Layer" class="shp3" d="M252.08 528.66L239.82 528.66L233.99 481.38L252.08 481.38L252.08 528.66L252.08 528.66Z" />
	<path id="Layer" class="shp2" d="M231.06 525.16L254.71 525.16L254.71 540.05L216.18 540.05L216.18 540.05C216.18 538.09 216.56 536.16 217.31 534.35C218.06 532.55 219.15 530.9 220.54 529.52C221.92 528.14 223.56 527.04 225.37 526.29C227.17 525.55 229.11 525.16 231.06 525.16L231.06 525.16Z" />
	<path id="Layer" class="shp2" d="M173.65 491.08C173.6 491.08 173.56 491.08 173.52 491.08C173.47 491.08 173.43 491.08 173.39 491.07C173.35 491.07 173.3 491.07 173.26 491.06C173.22 491.06 173.18 491.06 173.13 491.05L123.26 485.71C122.59 485.64 121.95 485.43 121.38 485.09C120.81 484.75 120.31 484.3 119.93 483.75C119.54 483.21 119.28 482.59 119.15 481.93C119.02 481.28 119.04 480.61 119.19 479.96L163.36 311.99C163.46 311.56 163.62 311.15 163.84 310.77C164.05 310.39 164.32 310.04 164.63 309.74C164.94 309.43 165.3 309.17 165.68 308.96C166.06 308.75 166.47 308.59 166.9 308.49L207.87 297.07C208.28 296.98 208.7 296.95 209.12 296.97C209.53 296.99 209.95 297.07 210.34 297.2C210.74 297.33 211.12 297.51 211.47 297.74C211.82 297.97 212.14 298.24 212.42 298.56C238.76 328.27 258.61 394.13 273.64 477.14C273.76 477.77 273.74 478.41 273.6 479.03C273.46 479.65 273.19 480.24 272.81 480.75C272.44 481.26 271.96 481.7 271.41 482.02C270.86 482.34 270.25 482.55 269.62 482.63L228.76 487.85C228.18 487.92 227.6 487.89 227.03 487.75C226.47 487.61 225.94 487.37 225.47 487.04C224.99 486.71 224.58 486.29 224.26 485.81C223.94 485.33 223.71 484.79 223.58 484.22L203.7 395.57C203.52 394.76 203.06 394.03 202.4 393.51C201.75 392.99 200.93 392.71 200.1 392.72C199.26 392.73 198.45 393.03 197.81 393.56C197.17 394.1 196.73 394.84 196.56 395.66L178.23 487.31C178.13 487.84 177.94 488.34 177.66 488.8C177.39 489.27 177.03 489.68 176.62 490.02C176.2 490.36 175.73 490.63 175.22 490.81C174.72 490.99 174.18 491.08 173.65 491.08Z" />
	<path id="Layer" class="shp3" d="M166.06 220.46C152.48 220.46 141.5 209.48 141.5 195.89C141.5 182.31 152.48 171.33 166.06 171.33C179.64 171.33 190.62 182.31 190.62 195.89C190.62 209.48 179.64 220.46 166.06 220.46Z" />
	<path id="Layer" class="shp4" d="M165.37 312.46C164.86 312.46 164.35 312.37 163.87 312.21C163.38 312.04 162.93 311.8 162.52 311.49C162.11 311.17 161.76 310.8 161.48 310.37C161.19 309.94 160.98 309.47 160.85 308.97L146.08 253.46C145.55 251.49 145.38 249.43 145.6 247.39C145.81 245.36 146.39 243.38 147.32 241.55C148.24 239.72 149.49 238.08 151.01 236.71C152.52 235.33 154.28 234.24 156.19 233.5C168.08 228.86 179.41 227.13 189.87 228.38L189.87 228.38C199.16 229.49 210.62 284.5 209.86 285.67L213.53 296.67C213.74 297.29 213.81 297.95 213.75 298.61C213.68 299.26 213.48 299.9 213.16 300.47C212.83 301.04 212.39 301.54 211.86 301.93C211.33 302.32 210.73 302.59 210.09 302.74L166.39 312.35C166.31 312.37 166.22 312.38 166.14 312.4C166.06 312.41 165.97 312.42 165.89 312.43C165.8 312.44 165.72 312.45 165.63 312.45C165.54 312.46 165.46 312.46 165.37 312.46L165.37 312.46Z" />
	<path id="Layer" class="shp3" d="M178.62 369.23C178.83 368.13 178.79 367.01 178.52 365.93C178.25 364.85 177.75 363.84 177.04 362.98C176.34 362.12 175.46 361.42 174.46 360.94C173.46 360.45 172.36 360.19 171.25 360.18L162.73 334.51L154.03 345.54L163.45 368.23C163.55 370.1 164.33 371.87 165.65 373.2C166.96 374.54 168.72 375.34 170.59 375.46C172.46 375.59 174.31 375.02 175.79 373.87C177.27 372.72 178.27 371.07 178.62 369.23L178.62 369.23Z" />
	<path id="Layer" class="shp3" d="M288.06 307.53C287.55 306.55 286.83 305.68 285.95 305C285.07 304.32 284.05 303.84 282.97 303.6C281.88 303.35 280.76 303.35 279.67 303.59C278.58 303.82 277.56 304.3 276.68 304.97L254.12 290.05L254.1 304.1L275.52 316.12C276.76 317.53 278.46 318.44 280.32 318.67C282.18 318.91 284.06 318.45 285.61 317.4C287.15 316.34 288.26 314.75 288.71 312.93C289.16 311.11 288.93 309.19 288.06 307.53L288.06 307.53Z" />
	<path id="Layer" class="shp4" d="M160.77 357.37C160.28 357.37 159.79 357.29 159.32 357.14C158.86 356.99 158.42 356.77 158.02 356.48C157.62 356.19 157.27 355.84 156.98 355.45C156.69 355.05 156.47 354.61 156.31 354.15L136.36 311.93C136.15 311.31 135.97 310.69 135.82 310.06C135.66 309.43 135.54 308.79 135.43 308.15C135.33 307.51 135.25 306.86 135.2 306.21C135.15 305.56 135.12 304.91 135.12 304.26L141.12 249.39C141.12 246.32 142.29 243.36 144.4 241.13C146.51 238.89 149.39 237.54 152.45 237.35C155.52 237.17 158.54 238.16 160.9 240.13C163.26 242.09 164.78 244.89 165.15 247.94L155.97 310.57L170.62 349.01C170.74 349.51 170.77 350.04 170.71 350.56C170.65 351.07 170.51 351.58 170.29 352.05C170.06 352.52 169.76 352.95 169.4 353.32C169.03 353.69 168.61 354 168.14 354.23L162.86 356.87C162.7 356.95 162.54 357.02 162.37 357.09C162.2 357.15 162.02 357.2 161.84 357.24C161.67 357.28 161.49 357.31 161.31 357.33C161.13 357.36 160.95 357.37 160.77 357.37L160.77 357.37Z" />
	<path id="Layer" class="shp4" d="M267.35 313.08C267.17 313.08 266.99 313.07 266.8 313.04C266.62 313.02 266.44 312.99 266.26 312.95C266.09 312.91 265.91 312.85 265.74 312.79C265.57 312.73 265.4 312.66 265.24 312.57L225.55 292.53C224.97 292.23 224.4 291.92 223.84 291.58C223.29 291.24 222.75 290.88 222.22 290.5C221.7 290.12 221.18 289.71 220.69 289.29C220.2 288.87 219.72 288.43 219.26 287.97L180.52 249.1C178.35 246.93 177.1 244.01 177.01 240.93C176.92 237.86 178.01 234.88 180.05 232.58C182.09 230.28 184.93 228.85 187.99 228.58C191.05 228.31 194.1 229.21 196.52 231.11L238.48 277.71L271.74 298.83C272.18 299.11 272.57 299.46 272.9 299.87C273.22 300.27 273.48 300.73 273.65 301.22C273.82 301.71 273.91 302.23 273.92 302.75C273.92 303.27 273.84 303.79 273.67 304.28L271.8 309.88C271.64 310.34 271.42 310.78 271.13 311.17C270.84 311.56 270.49 311.91 270.09 312.19C269.69 312.48 269.26 312.7 268.79 312.85C268.33 313 267.84 313.08 267.35 313.08L267.35 313.08Z" />
	<path id="Layer" class="shp2" d="M138.12 183.2C139.15 184.55 140.31 185.8 141.56 186.95C142.82 188.1 144.17 189.13 145.61 190.03C147.05 190.94 148.57 191.71 150.15 192.35C151.72 192.99 153.35 193.48 155.02 193.83C156.71 194.18 158.42 194.38 160.14 194.43C161.87 194.48 163.59 194.39 165.3 194.14C167 193.9 168.69 193.51 170.33 192.97C171.97 192.44 173.55 191.76 175.08 190.95C180.02 188.28 183.98 184.27 187.86 180.32C189.48 178.67 191.2 176.77 191.12 174.52C190.99 171.04 186.81 169.13 183.21 168.37C180.28 167.76 177.31 167.39 174.33 167.25C171.34 167.11 168.35 167.2 165.38 167.54C162.41 167.87 159.47 168.44 156.59 169.24C153.71 170.04 150.9 171.07 148.18 172.31C143.3 174.58 138.21 178.68 138.95 183.78" />
	<path id="Layer" fill-rule="evenodd" class="shp5" d="M783.12 189.45C785.35 189.45 787.56 189.89 789.62 190.75C791.69 191.6 793.56 192.85 795.14 194.43C796.71 196.01 797.97 197.88 798.82 199.94C799.68 202 800.12 204.21 800.12 206.45L800.12 392.45C800.12 394.68 799.68 396.89 798.82 398.95C797.97 401.01 796.71 402.88 795.14 404.46C793.56 406.04 791.69 407.29 789.62 408.14C787.56 409 785.35 409.44 783.12 409.45L301.12 409.45C298.89 409.44 296.68 409 294.62 408.14C292.56 407.29 290.69 406.04 289.11 404.46C287.53 402.88 286.28 401.01 285.42 398.95C284.57 396.89 284.13 394.68 284.12 392.45L284.12 206.45C284.13 204.21 284.57 202 285.42 199.94C286.28 197.88 287.53 196.01 289.11 194.43C290.69 192.85 292.56 191.6 294.62 190.75C296.68 189.89 298.89 189.45 301.12 189.45L783.12 189.45ZM798.12 206.45C798.12 204.48 797.73 202.53 796.98 200.71C796.22 198.89 795.12 197.24 793.72 195.84C792.33 194.45 790.68 193.35 788.86 192.59C787.04 191.84 785.09 191.45 783.12 191.45L301.12 191.45C299.15 191.45 297.2 191.84 295.38 192.59C293.57 193.35 291.91 194.45 290.52 195.84C289.13 197.24 288.02 198.89 287.27 200.71C286.51 202.53 286.12 204.48 286.12 206.45L286.12 392.45C286.12 394.41 286.51 396.36 287.27 398.18C288.02 400 289.13 401.65 290.52 403.05C291.91 404.44 293.57 405.54 295.38 406.3C297.2 407.05 299.15 407.44 301.12 407.45L783.12 407.45C785.09 407.44 787.04 407.05 788.86 406.3C790.68 405.54 792.33 404.44 793.72 403.05C795.12 401.65 796.22 400 796.98 398.18C797.73 396.36 798.12 394.41 798.12 392.45L798.12 206.45Z" />
	<path id="Layer" fill-rule="evenodd" class="shp5" d="M335.05 321.64C326.07 299.97 331.04 275.02 347.62 258.43C364.21 241.85 389.16 236.88 410.83 245.86C432.5 254.84 446.64 275.99 446.64 299.45C446.63 307.06 445.12 314.6 442.2 321.63C439.29 328.66 435.01 335.05 429.63 340.44C424.24 345.82 417.85 350.09 410.82 353.01C403.79 355.93 396.25 357.44 388.64 357.45C365.18 357.45 344.03 343.31 335.05 321.64ZM336.9 278.02C328.23 298.94 333.02 323.03 349.04 339.04C365.05 355.06 389.14 359.85 410.07 351.18C430.99 342.51 444.64 322.1 444.64 299.45C444.63 292.09 443.17 284.82 440.36 278.02C437.54 271.23 433.41 265.06 428.22 259.87C423.02 254.67 416.85 250.54 410.06 247.73C403.27 244.91 395.99 243.45 388.64 243.45C365.99 243.45 345.57 257.09 336.9 278.02Z" />
	<path id="Layer" class="shp6" d="M740.11 262.45L509.11 262.45C507.51 262.45 505.92 262.75 504.44 263.35C502.96 263.95 501.6 264.83 500.45 265.94C499.3 267.05 498.37 268.37 497.71 269.83C497.06 271.29 496.69 272.86 496.63 274.46C496.62 274.5 496.62 274.54 496.62 274.58C496.61 274.62 496.61 274.66 496.61 274.7C496.61 274.74 496.61 274.78 496.61 274.82C496.61 274.86 496.61 274.9 496.61 274.95C496.61 276.59 496.94 278.21 497.56 279.73C498.19 281.24 499.11 282.62 500.27 283.78C501.43 284.94 502.81 285.86 504.33 286.49C505.84 287.12 507.47 287.44 509.11 287.45L740.11 287.45C743.42 287.45 746.6 286.13 748.95 283.78C751.29 281.44 752.61 278.26 752.61 274.95C752.61 271.63 751.29 268.45 748.95 266.11C746.6 263.76 743.42 262.45 740.11 262.45Z" />
	<path id="Layer" class="shp6" d="M740.11 311.45L509.11 311.45C507.51 311.45 505.92 311.75 504.44 312.35C502.96 312.95 501.6 313.83 500.45 314.94C499.3 316.05 498.37 317.37 497.71 318.83C497.06 320.29 496.69 321.86 496.63 323.46C496.62 323.5 496.62 323.54 496.62 323.58C496.61 323.62 496.61 323.66 496.61 323.7C496.61 323.74 496.61 323.78 496.61 323.82C496.61 323.86 496.61 323.9 496.61 323.95C496.61 325.59 496.94 327.21 497.56 328.73C498.19 330.24 499.11 331.62 500.27 332.78C501.43 333.94 502.81 334.86 504.33 335.49C505.84 336.12 507.47 336.44 509.11 336.45L740.11 336.45C743.42 336.45 746.6 335.13 748.95 332.78C751.29 330.44 752.61 327.26 752.61 323.95C752.61 320.63 751.29 317.45 748.95 315.11C746.6 312.76 743.42 311.45 740.11 311.45L740.11 311.45Z" />
	<path id="Layer" class="shp6" d="M382.17 324.79C381.76 324.79 381.36 324.76 380.97 324.69C380.57 324.63 380.18 324.53 379.8 324.41C379.42 324.28 379.05 324.12 378.69 323.94C378.34 323.75 378 323.54 377.68 323.3L377.6 323.24L360.69 310.29C359.11 309.08 358.08 307.29 357.81 305.32C357.55 303.34 358.09 301.35 359.3 299.76C360.51 298.18 362.3 297.15 364.27 296.89C366.25 296.63 368.25 297.16 369.83 298.37L380.78 306.77L406.65 273.02C407.25 272.24 408 271.58 408.85 271.09C409.71 270.6 410.65 270.28 411.63 270.15C412.61 270.02 413.6 270.08 414.55 270.34C415.5 270.59 416.4 271.03 417.18 271.63L417.02 271.85L417.18 271.64C417.97 272.24 418.62 272.98 419.12 273.84C419.61 274.69 419.93 275.64 420.06 276.61C420.19 277.59 420.12 278.58 419.87 279.54C419.61 280.49 419.17 281.38 418.57 282.16L388.14 321.86C387.79 322.31 387.39 322.73 386.94 323.09C386.5 323.45 386.01 323.77 385.49 324.02C384.98 324.27 384.43 324.47 383.87 324.59C383.31 324.72 382.74 324.79 382.17 324.79Z" />
	<path id="Layer" class="shp1" d="M683.26 144.39C678.05 143.68 672.81 143.17 667.55 142.87C662.3 142.57 657.04 142.48 651.78 142.6C646.52 142.71 641.27 143.04 636.03 143.58C630.8 144.12 625.59 144.86 620.41 145.81C615.25 146.76 610.13 147.9 605.06 149.24C599.99 150.58 594.97 152.12 590.02 153.85C585.07 155.58 580.19 157.5 575.38 159.62C570.58 161.73 565.86 164.02 561.24 166.5C558.64 167.9 556.07 169.35 553.53 170.87C551 172.38 548.5 173.96 546.03 175.58C543.57 177.21 541.14 178.9 538.75 180.63C536.37 182.37 534.02 184.16 531.71 186.01C530.2 187.21 532.34 189.32 533.83 188.13C537.87 184.92 542.04 181.86 546.33 178.98C550.61 176.1 555.01 173.39 559.51 170.86C564.02 168.33 568.62 165.98 573.31 163.82C578 161.65 582.77 159.68 587.62 157.9C592.43 156.12 597.31 154.52 602.24 153.12C607.17 151.72 612.16 150.5 617.18 149.48C622.21 148.46 627.27 147.64 632.36 147.01C637.45 146.38 642.56 145.95 647.68 145.71C650.59 145.58 653.49 145.51 656.4 145.51C659.3 145.51 662.21 145.57 665.11 145.71C668.01 145.84 670.91 146.03 673.8 146.3C676.7 146.56 679.58 146.89 682.46 147.29C682.65 147.33 682.85 147.34 683.04 147.31C683.23 147.29 683.42 147.22 683.59 147.13C683.76 147.03 683.91 146.9 684.03 146.75C684.15 146.6 684.25 146.43 684.31 146.24C684.36 146.05 684.37 145.85 684.35 145.66C684.32 145.46 684.26 145.27 684.16 145.1C684.06 144.93 683.93 144.78 683.78 144.66C683.62 144.54 683.45 144.45 683.26 144.39L683.26 144.39Z" />
</svg>